<svg aria-hidden="true" style="position: absolute; width: 0; height: 0; overflow: hidden;" version="1.1"
  xmlns="http://www.w3.org/2000/svg" xmlns:xlink="http://www.w3.org/1999/xlink">
  <defs>
    <symbol id="telegram" viewBox="0 0 31 32">
      <path fill="#2352de" style="fill: var(--color1, #2352de)"
        d="M30.136 3.125c-0.374-0.47-0.934-0.729-1.577-0.729-0.35 0-0.72 0.076-1.101 0.225l-25.91 10.165c-1.375 0.539-1.56 1.349-1.548 1.783s0.241 1.232 1.644 1.69c0.008 0.003 0.017 0.005 0.025 0.008l5.374 1.581 2.906 8.542c0.396 1.165 1.286 1.888 2.322 1.888 0.653 0 1.296-0.281 1.858-0.813l3.324-3.146 4.822 3.99c0 0 0.001 0.001 0.002 0.001l0.046 0.038c0.004 0.003 0.009 0.007 0.013 0.010 0.536 0.427 1.121 0.653 1.692 0.653h0c1.117 0 2.006-0.849 2.264-2.164l4.245-21.544c0.171-0.865 0.028-1.639-0.403-2.179zM8.842 17.548l10.369-5.444-6.456 7.051c-0.106 0.115-0.181 0.257-0.218 0.411l-1.245 5.183-2.45-7.2zM12.915 26.109c-0.043 0.041-0.086 0.077-0.129 0.11l1.155-4.808 2.101 1.739-3.127 2.959zM28.781 4.938l-4.245 21.545c-0.041 0.206-0.171 0.686-0.507 0.686-0.166 0-0.374-0.093-0.587-0.262l-5.464-4.521c-0.001-0.001-0.002-0.001-0.003-0.002l-3.251-2.691 9.337-10.196c0.299-0.326 0.326-0.826 0.064-1.185s-0.737-0.471-1.125-0.267l-15.356 8.063-5.447-1.602 25.902-10.162c0.219-0.086 0.372-0.104 0.461-0.104 0.055 0 0.152 0.007 0.189 0.053 0.048 0.060 0.108 0.264 0.033 0.646z">
      </path>
    </symbol>
    <symbol id="facebook" viewBox="0 0 32 32">
      <path fill="#2352de" style="fill: var(--color1, #2352de)"
        d="M28.25 0h-24.5c-2.068 0-3.75 1.682-3.75 3.75v24.5c0 2.068 1.682 3.75 3.75 3.75h24.5c2.068 0 3.75-1.682 3.75-3.75v-24.5c0-2.068-1.682-3.75-3.75-3.75zM29.5 28.25c0 0.689-0.561 1.25-1.25 1.25h-7.125v-10.188h3.862l0.638-3.875h-4.5v-2.688c0-1.061 0.814-1.875 1.875-1.875h2.562v-3.875h-2.562c-3.183 0-5.749 2.578-5.749 5.761v2.677h-3.751v3.875h3.751v10.188h-13.501c-0.689 0-1.25-0.561-1.25-1.25v-24.5c0-0.689 0.561-1.25 1.25-1.25h24.5c0.689 0 1.25 0.561 1.25 1.25v24.5z">
      </path>
    </symbol>
    <symbol id="instagram" viewBox="0 0 32 32">
      <path fill="#2352de" style="fill: var(--color1, #2352de)"
        d="M22.705 0h-13.409c-5.126 0-9.296 4.17-9.296 9.296v13.409c0 5.126 4.17 9.296 9.296 9.296h13.409c5.126 0 9.296-4.17 9.296-9.295v-13.409c0-5.126-4.17-9.296-9.295-9.296zM29.5 22.704c0 3.747-3.048 6.796-6.795 6.796h-13.409c-3.747 0-6.795-3.048-6.795-6.795v-13.409c0-3.747 3.048-6.795 6.795-6.795h13.409c3.747 0 6.796 3.048 6.796 6.795v13.409z">
      </path>
      <path fill="#2352de" style="fill: var(--color1, #2352de)"
        d="M16 7.375c-4.756 0-8.625 3.869-8.625 8.625s3.869 8.625 8.625 8.625c4.756 0 8.625-3.869 8.625-8.625s-3.869-8.625-8.625-8.625zM16 22.125c-3.377 0-6.125-2.748-6.125-6.125s2.748-6.125 6.125-6.125c3.377 0 6.125 2.748 6.125 6.125s-2.748 6.125-6.125 6.125z">
      </path>
      <path fill="#2352de" style="fill: var(--color1, #2352de)"
        d="M24.75 8.5c0.69 0 1.25-0.56 1.25-1.25s-0.56-1.25-1.25-1.25c-0.69 0-1.25 0.56-1.25 1.25s0.56 1.25 1.25 1.25z">
      </path>
    </symbol>
  </defs>
</svg>